# xmcd
#
# Track frame offsets: 
#        150
#        20037
#        30548
#        42071
#        54388
#        64165
#        74927
#        84089
#        96738
#        108898
#        117641
#        126718
#        141411
#        153679
#        163700
#        175666
#        188623
#        199895
#        210576
#        222964
#        234125
#        248323
#        261108
#        275611
#        297239
#
# Disc length: 4223 seconds
#
# Revision: 3
# Processed by: cddbd v1.5.2PL0 Copyright (c) Steve Scherf et al.
# Submitted via: ExactAudioCopyFreeDBPlugin 1.0
#
DISCID=7b107d19
DTITLE=Various Artist - Allen Toussaint:  Everything I Do Gonh Be Fun
DTITLE=ky (The Hit Songs and Productions 1957-1978)
DYEAR=2011
DGENRE=Rhythm and Blues
TTITLE0=Jessie Hill - Ooh Poo Pah Doo, Parts 1 and 2
TTITLE1=Aaron Neville - Over You
TTITLE2=Ernie K. Doe - Mother in Law
TTITLE3=Ernie K. Doe - A Certain Girl
TTITLE4=Benny Spellman - Fortune Teller
TTITLE5=Benny Spellman - Lipstick Traces
TTITLE6=Irma Thomas - It's Raining
TTITLE7=Aaron Neville - Wrong Number
TTITLE8=Irma Thomas - Ruler of My Heart
TTITLE9=Chris Kenner - I Like It Like That, Part 1
TTITLE10=Chris Kenner - I Like It Like That, Part 2
TTITLE11=Art Neville - All These Things
TTITLE12=Jessie Hill - Oogsey Moo
TTITLE13=The Showmen - It Will Stand
TTITLE14=The Primemates - Hot Tamales, Part 1
TTITLE15=The Primemates - Hot Tamales, Part 2
TTITLE16=Betty Harris - Nearer to You
TTITLE17=Betty Harris - I'm Evil Tonight
TTITLE18=Lee Dorsey - Working in a Coal Mine
TTITLE19=Lee Dorsey - Holy Cow
TTITLE20=Lee Dorsey - Everything I Do Gonh Be Funky (From Now On)
TTITLE21=The Meters - Sophisticated Cissy
TTITLE22=Lee Dorsey - Look a Py Py
TTITLE23=Lee Dorsey - Yes We Can
TTITLE24=Lee Dorsey - Night People
EXTD=
EXTT0=
EXTT1=
EXTT2=
EXTT3=
EXTT4=
EXTT5=
EXTT6=
EXTT7=
EXTT8=
EXTT9=
EXTT10=
EXTT11=
EXTT12=
EXTT13=
EXTT14=
EXTT15=
EXTT16=
EXTT17=
EXTT18=
EXTT19=
EXTT20=
EXTT21=
EXTT22=
EXTT23=
EXTT24=
PLAYORDER=
